#!OML:ASF F:\twosubjects\two\Thursday\Session 1\Rory.ASF
:FULLY-SPECIFIED
:DEGREES
346
root 8.5585 18.5732 -1.46323 5.48134 8.34996 2.13834
lowerback -2.8014 1.16903 -1.705
upperback 0.0892344 1.6279 -0.738419
thorax 1.63534 0.801782 0.265908
lowerneck -9.6921 0.104133 1.34047
upperneck 29.9036 -1.47141 4.80314
head 11.3261 0.102799 1.35819
rclavicle -1.82727e-014 -2.90723e-015
rhumerus 29.7803 10.0121 -87.3881
rradius 47.1477
rwrist -5.16036
rhand -53.3834 22.1578
rfingers 7.12502
rthumb -25.833 -6.10785
lclavicle -1.82727e-014 -2.90723e-015
lhumerus 26.4303 -6.6288 81.3458
lradius 45.207
lwrist 6.06349
lhand -26.4856 61.4478
lfingers 7.12502
lthumb 0.0766997 1708.57
rfemur -10.9131 6.7359 15.7321
rtibia 22.7285
rfoot -15.4495 -23.9694
rtoes -5.48012
lfemur -7.40593 -3.18193 -19.0792
ltibia 17.8011
lfoot -14.9781 -2.40679
ltoes -1.52487
347
root 8.55474 18.5749 -1.45697 5.56031 8.40677 2.23346
lowerback -2.8546 1.20926 -1.65731
upperback 0.0789162 1.68286 -0.839175
thorax 1.65808 0.82994 0.139413
lowerneck -9.64896 0.073493 1.2458
upperneck 29.7058 -1.56677 5.08551
head 11.2465 0.078323 1.46299
rclavicle -2.3132e-015 2.16303e-014
rhumerus 29.7649 10.0201 -87.2478
rradius 47.368
rwrist -5.18384
rhand -53.475 21.1159
rfingers 7.12502
rthumb -25.9207 -7.13699
lclavicle -2.3132e-015 2.16303e-014
lhumerus 26.3588 -6.89245 81.1785
lradius 45.3778
lwrist 6.10519
lhand -26.7533 61.8196
lfingers 7.12502
lthumb -0.181864 1708.2
rfemur -11.0052 6.46333 15.6391
rtibia 22.785
rfoot -15.3409 -23.9004
rtoes -5.34536
lfemur -7.44285 -3.37522 -19.1641
ltibia 17.7315
lfoot -14.8561 -2.14755
ltoes -1.49822
348
root 8.54404 18.5747 -1.45245 5.67721 8.51753 2.38006
lowerback -2.81383 1.22546 -1.67706
upperback -0.0518579 1.70462 -1.00068
thorax 1.50517 0.842948 -0.0168707
lowerneck -9.36064 0.101541 1.55522
upperneck 29.4298 -1.55171 5.03098
head 11.081 0.103327 1.38453
rclavicle 2.45173e-014 -5.29264e-015
rhumerus 29.5508 9.85926 -87.4468
rradius 47.5015
rwrist -5.09221
rhand -53.2567 20.0409
rfingers 7.12502
rthumb -25.7116 -8.24242
lclavicle 2.45173e-014 -5.29264e-015
lhumerus 26.0573 -7.5297 80.5937
lradius 45.6888
lwrist 6.61471
lhand -26.8304 61.901
lfingers 7.12502
lthumb -0.256293 1708.12
rfemur -11.0947 6.3674 15.5387
rtibia 22.9073
rfoot -15.558 -23.8873
rtoes -4.70833
lfemur -7.47029 -3.39741 -19.2631
ltibia 17.5554
lfoot -14.7429 -2.29387
ltoes -1.81083
349
root 8.53391 18.5697 -1.44778 5.68523 8.57987 2.79666
lowerback -2.67893 1.22048 -2.04723
upperback -0.0974649 1.70734 -1.14552
thorax 1.37648 0.843496 0.037911
lowerneck -9.03993 0.15394 1.84371
upperneck 29.155 -1.44267 4.79856
head 10.9063 0.146958 1.25643
rclavicle 3.67752e-014 3.18055e-015
rhumerus 29.4456 9.81082 -87.5651
rradius 47.5382
rwrist -5.21677
rhand -53.0266 20.053
rfingers 7.12502
rthumb -25.4913 -8.26193
lclavicle 3.67752e-014 3.18055e-015
lhumerus 25.8343 -8.05123 80.1111
lradius 45.9546
lwrist 7.22642
lhand -27.2267 62.0825
lfingers 7.12502
lthumb -0.639059 1707.94
rfemur -11.0125 6.36064 15.1487
rtibia 23.0332
rfoot -15.7882 -23.8929
rtoes -3.9964
lfemur -7.2848 -3.45526 -19.6857
ltibia 17.3502
lfoot -14.6504 -2.343
ltoes -2.33137
350
root 8.52505 18.5704 -1.43674 5.62637 8.58373 2.9781
lowerback -2.67236 1.23914 -2.22466
upperback -0.010336 1.73957 -1.15544
thorax 1.45677 0.857248 0.129158
lowerneck -9.15204 0.210999 1.94712
upperneck 29.0794 -1.30904 4.54008
head 10.8943 0.188562 1.15948
rclavicle -8.73332e-015 3.24267e-015
rhumerus 29.5691 9.86509 -87.4833
rradius 47.5181
rwrist -5.33842
rhand -53.1823 21.1797
rfingers 7.12502
rthumb -25.6404 -7.11385
lclavicle -8.73332e-015 3.24267e-015
lhumerus 25.8026 -7.69477 80.5948
lradius 45.9816
lwrist 6.74721
lhand -25.7592 59.1168
lfingers 7.12502
lthumb 0.778269 1529.1
rfemur -10.9316 6.64745 14.9912
rtibia 23.1281
rfoot -16.064 -24.077
rtoes -3.16058
lfemur -7.05307 -3.62711 -19.8593
ltibia 17.1638
lfoot -14.5899 -2.22352
ltoes -2.20763
351
root 8.51084 18.5725 -1.42076 5.40864 8.69458 2.78565
lowerback -2.62766 1.2008 -2.12303
upperback 0.130063 1.68493 -1.03432
thorax 1.57594 0.828383 0.195247
lowerneck -9.50458 0.275875 1.91308
upperneck 29.1952 -1.2078 4.46497
head 11.0064 0.228646 1.15349
rclavicle -7.33601e-015 -1.26057e-014
rhumerus 29.6483 9.95966 -87.4458
rradius 47.5744
rwrist -5.30383
rhand -53.5084 23.1163
rfingers 7.12502
rthumb -25.9526 -5.13186
lclavicle -7.33601e-015 -1.26057e-014
lhumerus 25.8146 -7.08434 81.1639
lradius 45.9776
lwrist 6.13987
lhand -27.945 62.0854
lfingers 7.12502
lthumb -1.33279 1707.94
rfemur -10.6739 7.20358 15.3046
rtibia 23.187
rfoot -16.335 -24.5939
rtoes -2.99672
lfemur -6.67317 -3.55569 -19.5879
ltibia 16.9842
lfoot -14.4546 -2.43154
ltoes -1.31037
352
root 8.49813 18.5693 -1.40615 5.27583 8.85615 2.7078
lowerback -2.64426 1.14715 -2.15699
upperback 0.258652 1.61603 -0.939293
thorax 1.71479 0.791224 0.311016
lowerneck -9.87104 0.297077 1.89753
upperneck 29.3917 -1.18558 4.4213
head 11.1549 0.240327 1.14791
rclavicle -5.03081e-014 -6.65929e-015
rhumerus 29.6536 9.89352 -87.5441
rradius 47.7191
rwrist -5.0399
rhand -53.6566 24.6139
rfingers 7.12502
rthumb -26.0946 -3.61345
lclavicle -5.03081e-014 -6.65929e-015
lhumerus 25.8268 -6.75819 81.4567
lradius 46.0248
lwrist 5.87657
lhand -26.924 59.7621
lfingers 7.12502
lthumb -0.346658 1529.74
rfemur -10.4329 7.62351 15.4929
rtibia 23.1673
rfoot -16.4381 -25.0535
rtoes -2.85418
lfemur -6.4225 -3.71007 -19.436
ltibia 16.9053
lfoot -14.3577 -2.61536
ltoes 0.129626
353
root 8.49021 18.5653 -1.3951 5.23835 8.89531 2.74979
lowerback -2.63615 1.19102 -2.24234
upperback 0.288206 1.67713 -0.912333
thorax 1.7361 0.8204 0.388939
lowerneck -10.003 0.227777 1.9694
upperneck 29.4931 -1.26944 4.28309
head 11.2209 0.197966 1.07683
rclavicle 5.93714e-015 4.94477e-015
rhumerus 29.539 9.67445 -87.6477
rradius 47.8403
rwrist -4.67664
rhand -53.7233 25.3336
rfingers 7.12502
rthumb -26.1585 -2.88423
lclavicle 5.93714e-015 4.94477e-015
lhumerus 25.8242 -6.91266 81.5316
lradius 46.0802
lwrist 6.28129
lhand -27.0367 58.2457
lfingers 7.12502
lthumb -0.455495 1528.22
rfemur -10.3241 7.74566 15.502
rtibia 23.127
rfoot -16.5355 -25.0831
rtoes -2.12125
lfemur -6.35591 -4.09347 -19.4336
ltibia 16.8962
lfoot -14.365 -2.57554
ltoes 1.69064
354
root 8.47994 18.5661 -1.38589 5.33688 8.97349 2.49516
lowerback -2.69693 1.20836 -2.06329
upperback 0.157951 1.6914 -0.787984
thorax 1.63749 0.830297 0.41644
lowerneck -9.83881 0.158998 1.78674
upperneck 29.5219 -1.35468 4.39804
head 11.2011 0.152431 1.14014
rclavicle 3.1849e-014 -1.15295e-014
rhumerus 29.3115 9.64205 -87.739
rradius 47.9568
rwrist -4.37735
rhand -53.8619 24.9177
rfingers 7.12502
rthumb -26.2912 -3.28046
lclavicle 3.1849e-014 -1.15295e-014
lhumerus 25.5883 -7.35542 81.3565
lradius 46.3408
lwrist 7.70481
lhand -28.4844 57.2832
lfingers 7.12502
lthumb -1.85378 1527.25
rfemur -10.4642 7.95917 15.8223
rtibia 23.1644
rfoot -16.6653 -25.1438
rtoes -0.976432
lfemur -6.46412 -4.21544 -19.0887
ltibia 16.8072
lfoot -14.3022 -2.61556
ltoes 2.69178
355
root 8.48062 18.5653 -1.38227 5.49285 9.06594 2.39633
lowerback -2.7619 1.1969 -1.86701
upperback 0.0431494 1.66921 -0.771622
thorax 1.56166 0.822072 0.322561
lowerneck -9.74303 0.121079 1.63128
upperneck 29.584 -1.41161 4.52963
head 11.2081 0.125849 1.20921
rclavicle -3.77691e-015 -1.09332e-014
rhumerus 29.2363 9.72359 -87.7902
rradius 47.9704
rwrist -4.28071
rhand -54.2654 23.5148
rfingers 7.12502
rthumb -26.6774 -4.62515
lclavicle -3.77691e-015 -1.09332e-014
lhumerus 25.392 -7.10377 81.4486
lradius 46.402
lwrist 6.68436
lhand -26.4187 57.6623
lfingers 7.12502
lthumb 0.141363 1527.64
rfemur -10.6799 7.74357 15.9102
rtibia 23.25
rfoot -16.6168 -25.0032
rtoes -0.95126
lfemur -6.58178 -4.09714 -18.9725
ltibia 16.6744
lfoot -14.445 -2.67997
ltoes 1.34078
356
root 8.48624 18.5612 -1.37651 5.59217 9.04675 2.68443
lowerback -2.78905 1.23628 -1.94014
upperback 0.0586669 1.72803 -0.939315
thorax 1.59477 0.851205 0.194908
lowerneck -9.83519 0.100544 1.89523
upperneck 29.5501 -1.43142 4.29271
head 11.2116 0.118096 1.0738
rclavicle 4.97428e-015 1.0312e-014
rhumerus 29.4179 9.73113 -87.7031
rradius 47.831
rwrist -4.43636
rhand -54.5626 23.1597
rfingers 7.12502
rthumb -26.9617 -4.93666
lclavicle 4.97428e-015 1.0312e-014
lhumerus 25.4774 -7.18199 81.3335
lradius 46.4214
lwrist 6.48403
lhand -25.1874 57.7759
lfingers 7.12502
lthumb 1.33057 1527.75
rfemur -10.7483 7.29465 15.5612
rtibia 23.3172
rfoot -16.6927 -24.6118
rtoes -0.934354
lfemur -6.59818 -4.11479 -19.325
ltibia 16.6155
lfoot -14.7718 -2.424
ltoes -0.77266
357
root 8.47601 18.5601 -1.36216 5.4969 9.03833 2.78204
lowerback -2.75498 1.26612 -2.04194
upperback 0.164941 1.77271 -0.961955
thorax 1.68164 0.871444 0.231078
lowerneck -9.75873 0.10542 1.93289
upperneck 29.2611 -1.39688 4.22282
head 11.0832 0.122059 1.04107
rclavicle 8.70801e-014 -2.51463e-014
rhumerus 29.6953 9.79214 -87.4994
rradius 47.7068
rwrist -4.57837
rhand -54.5027 23.7642
rfingers 7.12502
rthumb -26.9044 -4.34094
lclavicle 8.70801e-014 -2.51463e-014
lhumerus 25.5796 -7.31779 81.2572
lradius 46.5963
lwrist 6.60056
lhand -25.7571 59.3569
lfingers 7.12502
lthumb 0.780316 1529.34
rfemur -10.5929 7.35558 15.5189
rtibia 23.3738
rfoot -16.9759 -24.5598
rtoes 0.0894398
lfemur -6.43774 -4.09704 -19.4116
ltibia 16.5818
lfoot -14.7208 -2.32761
ltoes -0.935954
358
root 8.4653 18.5608 -1.34973 5.42091 9.11596 2.68064
lowerback -2.74533 1.29168 -1.92936
upperback 0.193106 1.80307 -0.946186
thorax 1.70748 0.887178 0.185706
lowerneck -9.32846 0.124499 1.77925
upperneck 28.8381 -1.37305 4.47815
head 10.8377 0.132235 1.15539
rclavicle 4.96573e-014 -1.21756e-015
rhumerus 29.7472 9.84979 -87.3387
rradius 47.7361
rwrist -4.34277
rhand -55.2597 22.2115
rfingers 7.12502
rthumb -27.6285 -5.77988
lclavicle 4.96573e-014 -1.21756e-015
lhumerus 25.3612 -7.4331 81.3638
lradius 46.8384
lwrist 5.81173
lhand -26.7735 60.2884
lfingers 7.12502
lthumb -0.201332 1349.73
rfemur -10.4884 7.20293 15.6944
rtibia 23.4022
rfoot -17.0353 -24.4585
rtoes 0.283754
lfemur -6.32963 -3.87098 -19.2633
ltibia 16.5876
lfoot -14.4148 -2.54437
ltoes -1.08414
359
root 8.4606 18.5569 -1.34286 5.41476 9.21417 2.58748
lowerback -2.73204 1.30566 -1.73585
upperback 0.170716 1.81504 -0.971629
thorax 1.68361 0.895329 0.0513239
lowerneck -9.07455 0.188532 1.72199
upperneck 28.6185 -1.31092 4.70004
head 10.7052 0.172754 1.24837
rclavicle -6.18873e-015 8.12532e-015
rhumerus 29.6133 9.89151 -87.2426
rradius 47.9415
rwrist -4.09662
rhand -55.8434 19.3913
rfingers 7.12502
rthumb -28.1866 -8.50942
lclavicle -6.18873e-015 8.12532e-015
lhumerus 24.8524 -6.81554 82.1328
lradius 46.9386
lwrist 5.09019
lhand -28.2709 61.0994
lfingers 7.12502
lthumb -1.64757 1348.93
rfemur -10.4367 6.66655 15.827
rtibia 23.3441
rfoot -16.8832 -24.0952
rtoes -0.349598
lfemur -6.37905 -3.8813 -19.1335
ltibia 16.7522
lfoot -14.3589 -2.60401
ltoes -0.697847
